<mxfile host="app.diagrams.net" modified="2023-05-28T22:33:30.428Z" agent="Mozilla/5.0 (Windows NT 10.0; Win64; x64; rv:109.0) Gecko/20100101 Firefox/113.0" etag="-K7Upb9sioPbNShwaUDX" version="21.3.5" type="github">
  <diagram name="Page-1" id="OXprNnjoduHg9stYtKVD">
    <mxGraphModel dx="1050" dy="511" grid="1" gridSize="10" guides="1" tooltips="1" connect="1" arrows="1" fold="1" page="1" pageScale="1" pageWidth="850" pageHeight="1100" math="0" shadow="0">
      <root>
        <mxCell id="0" />
        <mxCell id="1" parent="0" />
        <mxCell id="Zzg9NA7QPng4qkSRpMJ1-2" value="Système de gestion" style="swimlane;whiteSpace=wrap;html=1;startSize=20;" vertex="1" parent="1">
          <mxGeometry x="120" y="40" width="600" height="1150" as="geometry" />
        </mxCell>
        <mxCell id="Zzg9NA7QPng4qkSRpMJ1-6" value="Gérer les catégories" style="ellipse;whiteSpace=wrap;html=1;" vertex="1" parent="Zzg9NA7QPng4qkSRpMJ1-2">
          <mxGeometry x="40" y="120" width="140" height="70" as="geometry" />
        </mxCell>
        <mxCell id="Zzg9NA7QPng4qkSRpMJ1-7" value="Gérer les transactions" style="ellipse;whiteSpace=wrap;html=1;" vertex="1" parent="Zzg9NA7QPng4qkSRpMJ1-2">
          <mxGeometry x="40" y="380" width="140" height="70" as="geometry" />
        </mxCell>
        <mxCell id="Zzg9NA7QPng4qkSRpMJ1-8" value="Visualiser les dépenses" style="ellipse;whiteSpace=wrap;html=1;" vertex="1" parent="Zzg9NA7QPng4qkSRpMJ1-2">
          <mxGeometry x="40" y="610" width="140" height="70" as="geometry" />
        </mxCell>
        <mxCell id="Zzg9NA7QPng4qkSRpMJ1-9" value="Synchroniser compte bancaire et dépenses" style="ellipse;whiteSpace=wrap;html=1;" vertex="1" parent="Zzg9NA7QPng4qkSRpMJ1-2">
          <mxGeometry x="40" y="740" width="140" height="70" as="geometry" />
        </mxCell>
        <mxCell id="Zzg9NA7QPng4qkSRpMJ1-21" value="Modifier une catégorie" style="ellipse;whiteSpace=wrap;html=1;" vertex="1" parent="Zzg9NA7QPng4qkSRpMJ1-2">
          <mxGeometry x="250" y="120" width="140" height="70" as="geometry" />
        </mxCell>
        <mxCell id="Zzg9NA7QPng4qkSRpMJ1-20" value="Supprimer une catégorie" style="ellipse;whiteSpace=wrap;html=1;" vertex="1" parent="Zzg9NA7QPng4qkSRpMJ1-2">
          <mxGeometry x="250" y="200" width="140" height="70" as="geometry" />
        </mxCell>
        <mxCell id="Zzg9NA7QPng4qkSRpMJ1-27" style="edgeStyle=none;rounded=0;orthogonalLoop=1;jettySize=auto;html=1;exitX=0;exitY=0.5;exitDx=0;exitDy=0;entryX=0.943;entryY=0.186;entryDx=0;entryDy=0;entryPerimeter=0;endArrow=block;endFill=0;" edge="1" parent="Zzg9NA7QPng4qkSRpMJ1-2" source="Zzg9NA7QPng4qkSRpMJ1-22" target="Zzg9NA7QPng4qkSRpMJ1-6">
          <mxGeometry relative="1" as="geometry" />
        </mxCell>
        <mxCell id="Zzg9NA7QPng4qkSRpMJ1-22" value="Ajouter une catégorie" style="ellipse;whiteSpace=wrap;html=1;" vertex="1" parent="Zzg9NA7QPng4qkSRpMJ1-2">
          <mxGeometry x="250" y="40" width="140" height="70" as="geometry" />
        </mxCell>
        <mxCell id="Zzg9NA7QPng4qkSRpMJ1-23" value="Modifier une transaction" style="ellipse;whiteSpace=wrap;html=1;" vertex="1" parent="Zzg9NA7QPng4qkSRpMJ1-2">
          <mxGeometry x="250" y="380" width="140" height="70" as="geometry" />
        </mxCell>
        <mxCell id="Zzg9NA7QPng4qkSRpMJ1-24" value="Supprimer une transaction" style="ellipse;whiteSpace=wrap;html=1;" vertex="1" parent="Zzg9NA7QPng4qkSRpMJ1-2">
          <mxGeometry x="250" y="460" width="140" height="70" as="geometry" />
        </mxCell>
        <mxCell id="Zzg9NA7QPng4qkSRpMJ1-25" value="Ajouter une transaction" style="ellipse;whiteSpace=wrap;html=1;" vertex="1" parent="Zzg9NA7QPng4qkSRpMJ1-2">
          <mxGeometry x="250" y="300" width="140" height="70" as="geometry" />
        </mxCell>
        <mxCell id="Zzg9NA7QPng4qkSRpMJ1-29" style="edgeStyle=none;rounded=0;orthogonalLoop=1;jettySize=auto;html=1;exitX=0;exitY=0.5;exitDx=0;exitDy=0;entryX=0.914;entryY=0.914;entryDx=0;entryDy=0;entryPerimeter=0;endArrow=block;endFill=0;" edge="1" parent="Zzg9NA7QPng4qkSRpMJ1-2" source="Zzg9NA7QPng4qkSRpMJ1-20" target="Zzg9NA7QPng4qkSRpMJ1-6">
          <mxGeometry relative="1" as="geometry">
            <mxPoint x="270" y="95" as="sourcePoint" />
            <mxPoint x="192" y="153" as="targetPoint" />
          </mxGeometry>
        </mxCell>
        <mxCell id="Zzg9NA7QPng4qkSRpMJ1-30" style="edgeStyle=none;rounded=0;orthogonalLoop=1;jettySize=auto;html=1;exitX=0;exitY=0.5;exitDx=0;exitDy=0;entryX=0.943;entryY=0.186;entryDx=0;entryDy=0;entryPerimeter=0;endArrow=block;endFill=0;" edge="1" parent="Zzg9NA7QPng4qkSRpMJ1-2">
          <mxGeometry relative="1" as="geometry">
            <mxPoint x="250" y="330" as="sourcePoint" />
            <mxPoint x="172" y="388" as="targetPoint" />
          </mxGeometry>
        </mxCell>
        <mxCell id="Zzg9NA7QPng4qkSRpMJ1-31" style="edgeStyle=none;rounded=0;orthogonalLoop=1;jettySize=auto;html=1;exitX=0;exitY=0.5;exitDx=0;exitDy=0;entryX=0.914;entryY=0.914;entryDx=0;entryDy=0;entryPerimeter=0;endArrow=block;endFill=0;" edge="1" parent="Zzg9NA7QPng4qkSRpMJ1-2">
          <mxGeometry relative="1" as="geometry">
            <mxPoint x="250" y="490" as="sourcePoint" />
            <mxPoint x="168" y="439" as="targetPoint" />
          </mxGeometry>
        </mxCell>
        <mxCell id="Zzg9NA7QPng4qkSRpMJ1-32" style="edgeStyle=none;rounded=0;orthogonalLoop=1;jettySize=auto;html=1;exitX=0;exitY=0.5;exitDx=0;exitDy=0;endArrow=block;endFill=0;" edge="1" parent="Zzg9NA7QPng4qkSRpMJ1-2">
          <mxGeometry relative="1" as="geometry">
            <mxPoint x="250" y="410" as="sourcePoint" />
            <mxPoint x="182" y="410" as="targetPoint" />
          </mxGeometry>
        </mxCell>
        <mxCell id="Zzg9NA7QPng4qkSRpMJ1-35" style="edgeStyle=none;rounded=0;orthogonalLoop=1;jettySize=auto;html=1;exitX=0;exitY=0.5;exitDx=0;exitDy=0;endArrow=open;endFill=0;dashed=1;" edge="1" parent="Zzg9NA7QPng4qkSRpMJ1-2" source="Zzg9NA7QPng4qkSRpMJ1-33" target="Zzg9NA7QPng4qkSRpMJ1-8">
          <mxGeometry relative="1" as="geometry" />
        </mxCell>
        <mxCell id="Zzg9NA7QPng4qkSRpMJ1-33" value="Filtrer les dépenses" style="ellipse;whiteSpace=wrap;html=1;" vertex="1" parent="Zzg9NA7QPng4qkSRpMJ1-2">
          <mxGeometry x="250" y="570" width="140" height="70" as="geometry" />
        </mxCell>
        <mxCell id="Zzg9NA7QPng4qkSRpMJ1-37" style="edgeStyle=none;rounded=0;orthogonalLoop=1;jettySize=auto;html=1;exitX=0;exitY=0.5;exitDx=0;exitDy=0;entryX=0.971;entryY=0.671;entryDx=0;entryDy=0;entryPerimeter=0;endArrow=open;endFill=0;dashed=1;" edge="1" parent="Zzg9NA7QPng4qkSRpMJ1-2" source="Zzg9NA7QPng4qkSRpMJ1-34" target="Zzg9NA7QPng4qkSRpMJ1-8">
          <mxGeometry relative="1" as="geometry" />
        </mxCell>
        <mxCell id="Zzg9NA7QPng4qkSRpMJ1-34" value="Générer un rapport" style="ellipse;whiteSpace=wrap;html=1;" vertex="1" parent="Zzg9NA7QPng4qkSRpMJ1-2">
          <mxGeometry x="250" y="650" width="140" height="70" as="geometry" />
        </mxCell>
        <mxCell id="Zzg9NA7QPng4qkSRpMJ1-39" value="Se connecter" style="ellipse;whiteSpace=wrap;html=1;" vertex="1" parent="Zzg9NA7QPng4qkSRpMJ1-2">
          <mxGeometry x="40" y="900" width="140" height="70" as="geometry" />
        </mxCell>
        <mxCell id="Zzg9NA7QPng4qkSRpMJ1-46" value="" style="edgeStyle=none;rounded=0;orthogonalLoop=1;jettySize=auto;html=1;dashed=1;" edge="1" parent="Zzg9NA7QPng4qkSRpMJ1-2" source="Zzg9NA7QPng4qkSRpMJ1-40" target="Zzg9NA7QPng4qkSRpMJ1-42">
          <mxGeometry relative="1" as="geometry" />
        </mxCell>
        <mxCell id="Zzg9NA7QPng4qkSRpMJ1-40" value="Créer un compte" style="ellipse;whiteSpace=wrap;html=1;" vertex="1" parent="Zzg9NA7QPng4qkSRpMJ1-2">
          <mxGeometry x="40" y="1000" width="140" height="70" as="geometry" />
        </mxCell>
        <mxCell id="Zzg9NA7QPng4qkSRpMJ1-42" value="Valider adresse e-mail" style="ellipse;whiteSpace=wrap;html=1;" vertex="1" parent="Zzg9NA7QPng4qkSRpMJ1-2">
          <mxGeometry x="260" y="1000" width="140" height="70" as="geometry" />
        </mxCell>
        <mxCell id="Zzg9NA7QPng4qkSRpMJ1-49" value="&amp;lt;&amp;lt;include&amp;gt;&amp;gt;" style="text;html=1;align=center;verticalAlign=middle;resizable=0;points=[];autosize=1;strokeColor=none;fillColor=none;" vertex="1" parent="Zzg9NA7QPng4qkSRpMJ1-2">
          <mxGeometry x="170" y="1000" width="90" height="30" as="geometry" />
        </mxCell>
        <mxCell id="Zzg9NA7QPng4qkSRpMJ1-53" value="&amp;lt;&amp;lt;extend&amp;gt;&amp;gt;" style="text;html=1;align=center;verticalAlign=middle;resizable=0;points=[];autosize=1;strokeColor=none;fillColor=none;rotation=15;" vertex="1" parent="Zzg9NA7QPng4qkSRpMJ1-2">
          <mxGeometry x="160" y="670" width="90" height="30" as="geometry" />
        </mxCell>
        <mxCell id="Zzg9NA7QPng4qkSRpMJ1-54" value="&amp;lt;&amp;lt;extend&amp;gt;&amp;gt;" style="text;html=1;align=center;verticalAlign=middle;resizable=0;points=[];autosize=1;strokeColor=none;fillColor=none;rotation=-15;" vertex="1" parent="Zzg9NA7QPng4qkSRpMJ1-2">
          <mxGeometry x="160" y="590" width="90" height="30" as="geometry" />
        </mxCell>
        <mxCell id="Zzg9NA7QPng4qkSRpMJ1-15" style="edgeStyle=none;rounded=0;orthogonalLoop=1;jettySize=auto;html=1;exitX=0.5;exitY=0.5;exitDx=0;exitDy=0;exitPerimeter=0;entryX=0;entryY=0.5;entryDx=0;entryDy=0;strokeColor=default;endArrow=none;endFill=0;" edge="1" parent="1" source="Zzg9NA7QPng4qkSRpMJ1-3" target="Zzg9NA7QPng4qkSRpMJ1-6">
          <mxGeometry relative="1" as="geometry" />
        </mxCell>
        <mxCell id="Zzg9NA7QPng4qkSRpMJ1-17" style="edgeStyle=none;rounded=0;orthogonalLoop=1;jettySize=auto;html=1;exitX=0.5;exitY=0.5;exitDx=0;exitDy=0;exitPerimeter=0;endArrow=none;endFill=0;" edge="1" parent="1" source="Zzg9NA7QPng4qkSRpMJ1-3" target="Zzg9NA7QPng4qkSRpMJ1-7">
          <mxGeometry relative="1" as="geometry" />
        </mxCell>
        <mxCell id="Zzg9NA7QPng4qkSRpMJ1-19" style="edgeStyle=none;rounded=0;orthogonalLoop=1;jettySize=auto;html=1;exitX=0.5;exitY=0.5;exitDx=0;exitDy=0;exitPerimeter=0;entryX=0;entryY=0.5;entryDx=0;entryDy=0;endArrow=none;endFill=0;" edge="1" parent="1" source="Zzg9NA7QPng4qkSRpMJ1-3" target="Zzg9NA7QPng4qkSRpMJ1-9">
          <mxGeometry relative="1" as="geometry" />
        </mxCell>
        <mxCell id="Zzg9NA7QPng4qkSRpMJ1-3" value="Utilisateur" style="shape=umlActor;verticalLabelPosition=bottom;verticalAlign=top;html=1;outlineConnect=0;" vertex="1" parent="1">
          <mxGeometry x="30" y="320" width="30" height="60" as="geometry" />
        </mxCell>
        <mxCell id="Zzg9NA7QPng4qkSRpMJ1-18" style="edgeStyle=none;rounded=0;orthogonalLoop=1;jettySize=auto;html=1;endArrow=none;endFill=0;entryX=0.021;entryY=0.386;entryDx=0;entryDy=0;entryPerimeter=0;" edge="1" parent="1" target="Zzg9NA7QPng4qkSRpMJ1-8">
          <mxGeometry relative="1" as="geometry">
            <mxPoint x="45" y="350" as="sourcePoint" />
            <mxPoint x="160" y="430" as="targetPoint" />
          </mxGeometry>
        </mxCell>
        <mxCell id="Zzg9NA7QPng4qkSRpMJ1-28" style="edgeStyle=none;rounded=0;orthogonalLoop=1;jettySize=auto;html=1;exitX=0;exitY=0.5;exitDx=0;exitDy=0;endArrow=block;endFill=0;" edge="1" parent="1" source="Zzg9NA7QPng4qkSRpMJ1-21">
          <mxGeometry relative="1" as="geometry">
            <mxPoint x="380" y="125" as="sourcePoint" />
            <mxPoint x="302" y="195" as="targetPoint" />
          </mxGeometry>
        </mxCell>
        <mxCell id="Zzg9NA7QPng4qkSRpMJ1-47" value="" style="edgeStyle=none;rounded=0;orthogonalLoop=1;jettySize=auto;html=1;endArrow=none;endFill=0;" edge="1" parent="1" source="Zzg9NA7QPng4qkSRpMJ1-38" target="Zzg9NA7QPng4qkSRpMJ1-40">
          <mxGeometry relative="1" as="geometry" />
        </mxCell>
        <mxCell id="Zzg9NA7QPng4qkSRpMJ1-48" value="" style="edgeStyle=none;rounded=0;orthogonalLoop=1;jettySize=auto;html=1;entryX=0;entryY=0.5;entryDx=0;entryDy=0;endArrow=none;endFill=0;" edge="1" parent="1" source="Zzg9NA7QPng4qkSRpMJ1-38" target="Zzg9NA7QPng4qkSRpMJ1-39">
          <mxGeometry relative="1" as="geometry" />
        </mxCell>
        <mxCell id="Zzg9NA7QPng4qkSRpMJ1-38" value="Visiteur" style="shape=umlActor;verticalLabelPosition=bottom;verticalAlign=top;html=1;" vertex="1" parent="1">
          <mxGeometry x="30" y="980" width="30" height="60" as="geometry" />
        </mxCell>
        <mxCell id="Zzg9NA7QPng4qkSRpMJ1-44" value="&amp;lt;&amp;lt;actor&amp;gt;&amp;gt;&lt;br&gt;&lt;b&gt;Système&lt;/b&gt;" style="html=1;align=center;verticalAlign=middle;dashed=0;whiteSpace=wrap;" vertex="1" parent="1">
          <mxGeometry x="780" y="990" width="160" height="70" as="geometry" />
        </mxCell>
        <mxCell id="Zzg9NA7QPng4qkSRpMJ1-45" style="edgeStyle=none;rounded=0;orthogonalLoop=1;jettySize=auto;html=1;exitX=1;exitY=0.5;exitDx=0;exitDy=0;entryX=0;entryY=0.5;entryDx=0;entryDy=0;endArrow=none;endFill=0;" edge="1" parent="1" source="Zzg9NA7QPng4qkSRpMJ1-42" target="Zzg9NA7QPng4qkSRpMJ1-44">
          <mxGeometry relative="1" as="geometry" />
        </mxCell>
      </root>
    </mxGraphModel>
  </diagram>
</mxfile>
